<?xml version="1.0" encoding="UTF-8" standalone="no"?>
<!-- Created with Inkscape (http://www.inkscape.org/) -->

<svg
   xmlns:dc="http://purl.org/dc/elements/1.1/"
   xmlns:cc="http://creativecommons.org/ns#"
   xmlns:rdf="http://www.w3.org/1999/02/22-rdf-syntax-ns#"
   xmlns:svg="http://www.w3.org/2000/svg"
   xmlns="http://www.w3.org/2000/svg"
   xmlns:sodipodi="http://sodipodi.sourceforge.net/DTD/sodipodi-0.dtd"
   xmlns:inkscape="http://www.inkscape.org/namespaces/inkscape"
   width="512"
   height="512"
   viewBox="0 0 512.00001 512"
   id="svg2"
   version="1.1"
   inkscape:version="0.91 r13725"
   sodipodi:docname="logo.svg"
   inkscape:export-filename="/home/alexem/Projects/dev/prototype/jam-station/src/assets/logo.png"
   inkscape:export-xdpi="90"
   inkscape:export-ydpi="90">
  <defs
     id="defs4" />
  <sodipodi:namedview
     id="base"
     pagecolor="#ffffff"
     bordercolor="#666666"
     borderopacity="1.0"
     inkscape:pageopacity="0.0"
     inkscape:pageshadow="2"
     inkscape:zoom="0.088388348"
     inkscape:cx="-211.40657"
     inkscape:cy="1150.8924"
     inkscape:document-units="px"
     inkscape:current-layer="layer1"
     showgrid="false"
     units="px"
     inkscape:window-width="1366"
     inkscape:window-height="643"
     inkscape:window-x="0"
     inkscape:window-y="25"
     inkscape:window-maximized="1" />
  <metadata
     id="metadata7">
    <rdf:RDF>
      <cc:Work
         rdf:about="">
        <dc:format>image/svg+xml</dc:format>
        <dc:type
           rdf:resource="http://purl.org/dc/dcmitype/StillImage" />
        <dc:title></dc:title>
      </cc:Work>
    </rdf:RDF>
  </metadata>
  <g
     inkscape:label="Layer 1"
     inkscape:groupmode="layer"
     id="layer1"
     transform="translate(0,-540.36219)">
    <ellipse
       style="opacity:1;fill:#1a1a1a;fill-opacity:1;stroke:none;stroke-width:2.5;stroke-miterlimit:4;stroke-dasharray:none"
       id="path3336"
       cx="365.1622"
       cy="1002.7211"
       rx="67.282707"
       ry="26.234898"
       transform="matrix(1,0,-0.2816724,0.95951063,0,0)" />
    <rect
       style="opacity:1;fill:#1a1a1a;fill-opacity:1;stroke:none;stroke-width:2.5;stroke-miterlimit:4;stroke-dasharray:none"
       id="rect3338"
       width="28.912237"
       height="291.81467"
       x="471.23758"
       y="729.36157"
       transform="matrix(1,0,-0.34217773,0.93963525,0,0)"
       ry="0" />
    <path
       style="opacity:1;fill:#1a1a1a;fill-opacity:1;stroke:none;stroke-width:2.5;stroke-miterlimit:4;stroke-dasharray:none"
       d="m 204.42572,735.5565 19.57701,-57.11095 45.49127,-23.93144 30.92327,31.1892 85.2084,-57.71154 39.91277,19.02693 75.9034,-52.54757 -35.16261,53.45436 -58.8195,43.34987 -25.55687,-26.8715 -92.83703,59.59839 -32.38189,-31.44489 z"
       id="rect3340"
       inkscape:connector-curvature="0"
       sodipodi:nodetypes="ccccccccccccc" />
    <path
       style="fill:#1a1a1a;fill-rule:evenodd;stroke:none;stroke-width:1px;stroke-linecap:butt;stroke-linejoin:miter;stroke-opacity:1"
       d="m 228.90689,734.04778 62.21834,39.41936 0.50671,27.90095 48.03263,51.34104 18.78522,9.90585 0.53169,18.31502 -38.33097,9.66049 -28.04708,-17.01393 9.14343,-9.17205 3.13244,-16.63452 -16.28633,-24.90206 -20.88005,-43.69723 -55.1272,-18.73974 z"
       id="path3383"
       inkscape:connector-curvature="0"
       sodipodi:nodetypes="cccccccccccccc" />
    <path
       style="fill:#1a1a1a;fill-rule:evenodd;stroke:none;stroke-width:1px;stroke-linecap:butt;stroke-linejoin:miter;stroke-opacity:1"
       d="m 201.11393,800.30965 78.25533,1.40514 5.20302,7.78736 -99.64906,16.28918 z"
       id="path3385"
       inkscape:connector-curvature="0"
       sodipodi:nodetypes="ccccc" />
    <ellipse
       ry="21.322979"
       rx="54.685474"
       cy="998.62775"
       cx="372.76797"
       id="ellipse3406"
       style="opacity:1;fill:#000000;fill-opacity:1;stroke:none;stroke-width:2.5;stroke-miterlimit:4;stroke-dasharray:none"
       transform="matrix(1,0,-0.2816724,0.95951063,0,0)" />
    <path
       sodipodi:nodetypes="ccccccccccccc"
       inkscape:connector-curvature="0"
       id="path3408"
       d="m 215.6549,704.0508 14.08894,-41.71308 43.45612,-18.22145 34.21564,21.95182 77.26913,-47.45348 44.92825,16.97216 74.8815,-46.1006 -33.76233,45.94575 -54.96567,32.53722 -28.38575,-18.93454 -87.62363,44.97117 -35.70979,-22.10779 z"
       style="opacity:1;fill:#000000;fill-opacity:1;stroke:none;stroke-width:2.5;stroke-miterlimit:4;stroke-dasharray:none" />
    <path
       sodipodi:nodetypes="ccccccccccc"
       inkscape:connector-curvature="0"
       id="path3412"
       d="m 219.34853,729.17887 80.83103,42.41923 6.1752,45.12474 42.52125,52.47395 -29.84594,12.0743 -13.74012,-8.71521 7.13129,-26.69401 -23.04875,-21.64517 -4.61275,-49.67232 -75.3125,-23.09234 z"
       style="fill:#000000;fill-rule:evenodd;stroke:none;stroke-width:1px;stroke-linecap:butt;stroke-linejoin:miter;stroke-opacity:1" />
    <rect
       y="733.13794"
       x="480.2066"
       height="284.02203"
       width="14.735443"
       id="rect3414"
       style="opacity:1;fill:#000000;fill-opacity:1;stroke:none;stroke-width:2.5;stroke-miterlimit:4;stroke-dasharray:none"
       transform="matrix(1,0,-0.34217773,0.93963525,0,0)"
       ry="0" />
  </g>
</svg>
