<?xml version="1.0" encoding="UTF-8" standalone="no"?>
<!-- Created with Inkscape (http://www.inkscape.org/) -->

<svg
   xmlns:dc="http://purl.org/dc/elements/1.1/"
   xmlns:cc="http://creativecommons.org/ns#"
   xmlns:rdf="http://www.w3.org/1999/02/22-rdf-syntax-ns#"
   xmlns:svg="http://www.w3.org/2000/svg"
   xmlns="http://www.w3.org/2000/svg"
   xmlns:sodipodi="http://sodipodi.sourceforge.net/DTD/sodipodi-0.dtd"
   xmlns:inkscape="http://www.inkscape.org/namespaces/inkscape"
   width="512"
   height="512"
   viewBox="0 0 512.00001 512"
   id="svg2"
   version="1.1"
   inkscape:version="0.91 r13725"
   sodipodi:docname="logo.svg"
   inkscape:export-filename="/home/alexem/Projects/dev/prototype/jam-station/src/assets/logo.png"
   inkscape:export-xdpi="7.03125"
   inkscape:export-ydpi="7.03125">
  <defs
     id="defs4" />
  <sodipodi:namedview
     id="base"
     pagecolor="#ffffff"
     bordercolor="#666666"
     borderopacity="1.0"
     inkscape:pageopacity="0.0"
     inkscape:pageshadow="2"
     inkscape:zoom="0.70710678"
     inkscape:cx="435.34805"
     inkscape:cy="185.96427"
     inkscape:document-units="px"
     inkscape:current-layer="layer1"
     showgrid="false"
     units="px"
     inkscape:window-width="1366"
     inkscape:window-height="643"
     inkscape:window-x="0"
     inkscape:window-y="25"
     inkscape:window-maximized="1" />
  <metadata
     id="metadata7">
    <rdf:RDF>
      <cc:Work
         rdf:about="">
        <dc:format>image/svg+xml</dc:format>
        <dc:type
           rdf:resource="http://purl.org/dc/dcmitype/StillImage" />
        <dc:title></dc:title>
      </cc:Work>
    </rdf:RDF>
  </metadata>
  <g
     inkscape:label="Layer 1"
     inkscape:groupmode="layer"
     id="layer1"
     transform="translate(0,-540.36219)">
    <ellipse
       style="opacity:1;fill:#1a1a1a;fill-opacity:1;stroke:none;stroke-width:2.5;stroke-miterlimit:4;stroke-dasharray:none"
       id="path3336"
       cx="413.79169"
       cy="969.66937"
       rx="67.39006"
       ry="27.083624"
       transform="matrix(0.99840695,0.05642315,-0.35225611,0.93590364,0,0)" />
    <rect
       style="opacity:1;fill:#1a1a1a;fill-opacity:1;stroke:none;stroke-width:2.5;stroke-miterlimit:4;stroke-dasharray:none"
       id="rect3338"
       width="27.785156"
       height="270.17172"
       x="528.41602"
       y="732.63513"
       transform="matrix(0.99849343,0.05487132,-0.4186467,0.90814918,0,0)"
       ry="0" />
    <path
       style="opacity:1;fill:#1a1a1a;fill-opacity:1;stroke:none;stroke-width:2.5;stroke-miterlimit:4;stroke-dasharray:none"
       d="m 201.50197,754.52279 24.45651,-55.76696 47.53595,-21.31915 28.2585,32.74212 90.13921,-52.75802 38.28713,21.13097 80.39301,-48.12965 -39.72969,51.27106 -62.52327,39.91395 -23.261,-28.14978 -97.92905,54.21678 -29.69527,-33.07677 z"
       id="rect3340"
       inkscape:connector-curvature="0"
       sodipodi:nodetypes="ccccccccccccc" />
    <path
       style="fill:#1a1a1a;fill-rule:evenodd;stroke:none;stroke-width:1px;stroke-linecap:butt;stroke-linejoin:miter;stroke-opacity:1"
       d="m 217.76878,753.82952 79.90554,40.90077 0.56853,27.4203 46.27809,46.3827 21.07718,9.7352 0.59657,17.99951 -43.00768,9.49407 -31.46906,-16.72083 10.25901,-9.01405 3.51462,-16.34795 -10.65848,-20.3992 -23.42759,-42.94445 -67.23773,-19.13708 z"
       id="path3383"
       inkscape:connector-curvature="0"
       sodipodi:nodetypes="cccccccccccccc" />
    <path
       style="fill:#1a1a1a;fill-rule:evenodd;stroke:none;stroke-width:1px;stroke-linecap:butt;stroke-linejoin:miter;stroke-opacity:1"
       d="m 189.88367,821.11038 93.98798,1.38093 9.3058,15.80094 -122.73951,7.86083 z"
       id="path3385"
       inkscape:connector-curvature="0"
       sodipodi:nodetypes="ccccc" />
    <ellipse
       ry="22.0128"
       rx="54.772732"
       cy="965.4436"
       cx="421.40961"
       id="ellipse3406"
       style="opacity:1;fill:#000000;fill-opacity:1;stroke:none;stroke-width:2.5;stroke-miterlimit:4;stroke-dasharray:none"
       transform="matrix(0.99840695,0.05642315,-0.35225611,0.93590364,0,0)" />
    <path
       sodipodi:nodetypes="ccccccccccccc"
       inkscape:connector-curvature="0"
       id="path3408"
       d="m 215.42297,723.78211 17.65286,-40.74299 45.01294,-15.7478 32.3401,23.72904 81.32351,-42.98442 43.47816,19.36147 78.82029,-41.7691 -37.68789,43.87464 -57.74561,29.36386 -26.76801,-20.40555 -91.46592,39.94474 -33.82092,-23.96639 z"
       style="opacity:1;fill:#000000;fill-opacity:1;stroke:none;stroke-width:2.5;stroke-miterlimit:4;stroke-dasharray:none" />
    <path
       sodipodi:nodetypes="ccccccccccc"
       inkscape:connector-curvature="0"
       id="path3412"
       d="m 211.08263,749.76466 96.75072,43.12879 6.92863,44.34736 47.70919,51.56997 -33.48739,11.86629 -15.41653,-8.56507 8.00136,-26.23414 -25.86088,-21.27229 -9.93487,-46.77967 -79.74193,-24.73145 z"
       style="fill:#000000;fill-rule:evenodd;stroke:none;stroke-width:1px;stroke-linecap:butt;stroke-linejoin:miter;stroke-opacity:1" />
    <rect
       y="747.34845"
       x="538.75452"
       height="250.63953"
       width="16.15711"
       id="rect3414"
       style="opacity:1;fill:#000000;fill-opacity:1;stroke:none;stroke-width:2.5;stroke-miterlimit:4;stroke-dasharray:none"
       transform="matrix(0.99853005,0.05420094,-0.42291601,0.90616888,0,0)"
       ry="0" />
  </g>
</svg>
