<svg xmlns="http://www.w3.org/2000/svg" xmlns:xlink="http://www.w3.org/1999/xlink" version="1.1" x="0px" y="0px" viewBox="0 0 24 24" style="enable-background:new 0 0 24 24;" xml:space="preserve"><g><path d="M21.5,24h-19C1.122,24,0,22.879,0,21.5v-19C0,1.122,1.122,0,2.5,0h19C22.879,0,24,1.122,24,2.5v19   C24,22.879,22.879,24,21.5,24z M2.5,1C1.673,1,1,1.673,1,2.5v19C1,22.327,1.673,23,2.5,23h19c0.827,0,1.5-0.673,1.5-1.5v-19   C23,1.673,22.327,1,21.5,1H2.5z"></path><rect x="11.5" y="14.5" width="1" height="9"></rect><rect x="17.5" y="14.5" width="1" height="9"></rect><rect x="5.5" y="14.5" width="1" height="9"></rect><path d="M7.5,15h-3L4,14.5V1l0.5-0.5h3L8,1v13.5L7.5,15z M5,14h2V1.5H5V14z"></path><path d="M13.5,15h-3L10,14.5V1l0.5-0.5h3L14,1v13.5L13.5,15z M11,14h2V1.5h-2V14z"></path><path d="M19.5,15h-3L16,14.5V1l0.5-0.5h3L20,1v13.5L19.5,15z M17,14h2V1.5h-2V14z"></path></g></svg>