<svg xmlns="http://www.w3.org/2000/svg" xmlns:xlink="http://www.w3.org/1999/xlink" version="1.1" x="0px" y="0px" viewBox="0 0 100 100" enable-background="new 0 0 100 100" xml:space="preserve"><path d="M19.824,30.684h43.088c0.473,0,0.855,0.382,0.855,0.853v11.539h9.873c0.471,0,0.855,0.382,0.855,0.855v11.536h10.471  c0.471,0,0.855,0.383,0.855,0.855v13.391H74.496v12.391h-43.94c-0.474,0-0.858-0.385-0.858-0.855V69.713h-9.29  c-0.474,0-0.858-0.385-0.858-0.855V55.467h10.148v-10.54H18.968V31.537C18.968,31.066,19.353,30.684,19.824,30.684z M21.446,42.452  h18.372v-9.293H21.446V42.452z M42.917,42.452h18.375v-9.293H42.917V42.452z M32.175,54.844h18.374V45.55H32.175V54.844z   M43.5,67.234h18.373v-9.291H43.5V67.234z M32.175,79.627h18.374v-9.293H32.175V79.627z M64.971,67.234h18.375v-9.291H64.971V67.234  z"></path></svg>