<svg xmlns="http://www.w3.org/2000/svg" xmlns:xlink="http://www.w3.org/1999/xlink" version="1.1" x="0px" y="0px" viewBox="0 0 42.52 42.52" enable-background="new 0 0 42.52 42.52" xml:space="preserve"><circle cx="9.462" cy="9.404" r="6.619"></circle><g><path fill="#000000" d="M9.35,12.162V8.556H7.952v-0.85C8.148,7.711,8.337,7.696,8.52,7.662c0.183-0.035,0.347-0.095,0.492-0.183   c0.146-0.087,0.269-0.203,0.37-0.346s0.167-0.32,0.198-0.532h0.898v5.56H9.35z"></path></g><circle cx="33.98" cy="9.404" r="6.619"></circle><g><path fill="#000000" d="M32.29,7.853c0.084-0.272,0.212-0.511,0.381-0.715c0.17-0.204,0.383-0.362,0.64-0.477   c0.257-0.114,0.552-0.171,0.886-0.171c0.254,0,0.496,0.04,0.727,0.119c0.23,0.08,0.433,0.193,0.607,0.342s0.314,0.331,0.417,0.548   c0.104,0.217,0.155,0.461,0.155,0.731c0,0.281-0.045,0.521-0.135,0.723c-0.091,0.201-0.21,0.38-0.357,0.536   c-0.148,0.156-0.316,0.298-0.505,0.425c-0.188,0.127-0.377,0.253-0.567,0.377c-0.191,0.125-0.377,0.258-0.557,0.401   c-0.18,0.143-0.339,0.31-0.477,0.5h2.629v0.969h-4.082c0-0.323,0.046-0.604,0.139-0.842s0.219-0.452,0.377-0.64   c0.159-0.188,0.346-0.361,0.561-0.52c0.214-0.159,0.44-0.32,0.679-0.485c0.122-0.084,0.252-0.17,0.39-0.258s0.263-0.184,0.377-0.29   s0.209-0.225,0.286-0.357s0.115-0.283,0.115-0.453c0-0.27-0.078-0.48-0.234-0.631s-0.356-0.227-0.6-0.227   c-0.164,0-0.304,0.039-0.417,0.115c-0.114,0.077-0.205,0.177-0.274,0.302c-0.068,0.125-0.117,0.262-0.146,0.413   s-0.044,0.301-0.044,0.449h-1.08C32.168,8.42,32.205,8.125,32.29,7.853z"></path></g><circle cx="9.461" cy="33.115" r="6.62"></circle><circle cx="33.981" cy="33.115" r="6.62"></circle><g><path fill="#000000" d="M9.565,32.56c0.138-0.01,0.266-0.041,0.385-0.091c0.119-0.051,0.217-0.123,0.294-0.219   c0.077-0.095,0.115-0.223,0.115-0.381c0-0.238-0.08-0.421-0.238-0.548C9.962,31.194,9.78,31.13,9.573,31.13   c-0.286,0-0.501,0.095-0.647,0.282c-0.146,0.188-0.216,0.425-0.21,0.711H7.643c0.011-0.286,0.062-0.547,0.155-0.782   c0.092-0.235,0.222-0.438,0.389-0.607c0.167-0.17,0.366-0.301,0.6-0.394c0.233-0.093,0.492-0.139,0.778-0.139   c0.222,0,0.445,0.033,0.667,0.099c0.223,0.066,0.422,0.166,0.6,0.298c0.178,0.133,0.322,0.294,0.433,0.485   c0.111,0.19,0.167,0.41,0.167,0.659c0,0.27-0.065,0.508-0.195,0.715c-0.13,0.206-0.324,0.347-0.584,0.421v0.016   c0.307,0.068,0.548,0.217,0.723,0.444c0.175,0.229,0.262,0.501,0.262,0.818c0,0.291-0.057,0.551-0.171,0.778   c-0.114,0.228-0.266,0.419-0.457,0.572c-0.19,0.153-0.41,0.27-0.659,0.35c-0.249,0.079-0.508,0.119-0.778,0.119   c-0.312,0-0.597-0.045-0.854-0.136c-0.257-0.09-0.475-0.221-0.655-0.393c-0.18-0.172-0.319-0.383-0.417-0.632   c-0.098-0.249-0.144-0.534-0.139-0.857h1.072c0.005,0.148,0.029,0.29,0.071,0.425s0.104,0.252,0.183,0.35   c0.08,0.098,0.179,0.176,0.298,0.234s0.261,0.087,0.425,0.087c0.254,0,0.468-0.078,0.643-0.234s0.262-0.369,0.262-0.639   c0-0.212-0.041-0.374-0.123-0.485c-0.082-0.11-0.187-0.191-0.314-0.242c-0.127-0.05-0.266-0.079-0.417-0.087   s-0.295-0.012-0.433-0.012V32.56C9.298,32.571,9.428,32.571,9.565,32.56z"></path></g><g><polygon fill="#000000" points="32.632,36.86 29.44,33.278 30.438,32.389 32.705,34.934 37.594,30.221 38.521,31.184  "></polygon></g><g><g><rect x="16.08" y="8.812" width="7.858" height="1.186"></rect></g><g><g><polygon points="21.577,11.415 23.589,9.405 21.577,7.395 23.284,7.395 25.294,9.405 23.284,11.415    "></polygon></g></g></g><g><g><rect x="16.08" y="32.523" width="7.858" height="1.186"></rect></g><g><g><polygon points="21.577,35.126 23.589,33.117 21.578,31.106 23.284,31.107 25.294,33.117 23.284,35.126    "></polygon></g></g></g><g><g><rect x="22.608" y="12.515" transform="matrix(0.6449 0.7643 -0.7643 0.6449 24.2377 -10.2984)" width="1.186" height="16.835"></rect></g><g><g><polygon points="17.277,23.304 17.038,26.137 19.871,26.375 18.567,27.476 15.735,27.238 15.974,24.406    "></polygon></g></g></g></svg>